<svg width="169" height="32" viewBox="0 0 169 32" fill="none" xmlns="http://www.w3.org/2000/svg">
<path d="M20.5914 15.4615H24.2394C24.1274 14.4695 23.8554 13.5895 23.4234 12.8215C22.9914 12.0535 22.4394 11.4135 21.7674 10.9015C21.1114 10.3735 20.3594 9.97346 19.5114 9.70146C18.6794 9.42946 17.7914 9.29346 16.8474 9.29346C15.5354 9.29346 14.3514 9.52546 13.2954 9.98946C12.2554 10.4535 11.3754 11.0935 10.6554 11.9095C9.93535 12.7255 9.38335 13.6855 8.99935 14.7895C8.61535 15.8775 8.42335 17.0615 8.42335 18.3415C8.42335 19.5895 8.61535 20.7575 8.99935 21.8455C9.38335 22.9175 9.93535 23.8535 10.6554 24.6535C11.3754 25.4535 12.2554 26.0855 13.2954 26.5495C14.3514 26.9975 15.5354 27.2215 16.8474 27.2215C17.9034 27.2215 18.8714 27.0615 19.7514 26.7415C20.6314 26.4215 21.3994 25.9575 22.0554 25.3495C22.7114 24.7415 23.2394 24.0055 23.6394 23.1415C24.0394 22.2775 24.2874 21.3095 24.3834 20.2375H20.7354C20.5914 21.3895 20.1914 22.3175 19.5354 23.0215C18.8954 23.7255 17.9994 24.0775 16.8474 24.0775C15.9994 24.0775 15.2794 23.9175 14.6874 23.5975C14.0954 23.2615 13.6154 22.8215 13.2474 22.2775C12.8794 21.7335 12.6074 21.1255 12.4314 20.4535C12.2714 19.7655 12.1914 19.0615 12.1914 18.3415C12.1914 17.5895 12.2714 16.8615 12.4314 16.1575C12.6074 15.4535 12.8794 14.8295 13.2474 14.2855C13.6154 13.7255 14.0954 13.2855 14.6874 12.9655C15.2794 12.6295 15.9994 12.4615 16.8474 12.4615C17.3114 12.4615 17.7514 12.5415 18.1674 12.7015C18.5994 12.8455 18.9834 13.0535 19.3194 13.3255C19.6554 13.5975 19.9354 13.9175 20.1594 14.2855C20.3834 14.6375 20.5274 15.0295 20.5914 15.4615ZM29.6204 20.6455C29.6204 20.1495 29.6684 19.6615 29.7644 19.1815C29.8604 18.7015 30.0204 18.2775 30.2444 17.9095C30.4844 17.5415 30.7964 17.2455 31.1804 17.0215C31.5644 16.7815 32.0444 16.6615 32.6204 16.6615C33.1964 16.6615 33.6764 16.7815 34.0604 17.0215C34.4604 17.2455 34.7724 17.5415 34.9964 17.9095C35.2364 18.2775 35.4044 18.7015 35.5004 19.1815C35.5964 19.6615 35.6444 20.1495 35.6444 20.6455C35.6444 21.1415 35.5964 21.6295 35.5004 22.1095C35.4044 22.5735 35.2364 22.9975 34.9964 23.3815C34.7724 23.7495 34.4604 24.0455 34.0604 24.2695C33.6764 24.4935 33.1964 24.6055 32.6204 24.6055C32.0444 24.6055 31.5644 24.4935 31.1804 24.2695C30.7964 24.0455 30.4844 23.7495 30.2444 23.3815C30.0204 22.9975 29.8604 22.5735 29.7644 22.1095C29.6684 21.6295 29.6204 21.1415 29.6204 20.6455ZM26.2124 20.6455C26.2124 21.6375 26.3644 22.5335 26.6684 23.3335C26.9724 24.1335 27.4044 24.8215 27.9644 25.3975C28.5244 25.9575 29.1964 26.3895 29.9804 26.6935C30.7644 26.9975 31.6444 27.1495 32.6204 27.1495C33.5964 27.1495 34.4764 26.9975 35.2604 26.6935C36.0604 26.3895 36.7404 25.9575 37.3004 25.3975C37.8604 24.8215 38.2924 24.1335 38.5964 23.3335C38.9004 22.5335 39.0524 21.6375 39.0524 20.6455C39.0524 19.6535 38.9004 18.7575 38.5964 17.9575C38.2924 17.1415 37.8604 16.4535 37.3004 15.8935C36.7404 15.3175 36.0604 14.8775 35.2604 14.5735C34.4764 14.2535 33.5964 14.0935 32.6204 14.0935C31.6444 14.0935 30.7644 14.2535 29.9804 14.5735C29.1964 14.8775 28.5244 15.3175 27.9644 15.8935C27.4044 16.4535 26.9724 17.1415 26.6684 17.9575C26.3644 18.7575 26.2124 19.6535 26.2124 20.6455ZM52.9083 26.8375V14.4295H49.5003V20.9335C49.5003 22.1975 49.2923 23.1095 48.8763 23.6695C48.4603 24.2135 47.7883 24.4855 46.8603 24.4855C46.0443 24.4855 45.4763 24.2375 45.1563 23.7415C44.8363 23.2295 44.6763 22.4615 44.6763 21.4375V14.4295H41.2683V22.0615C41.2683 22.8295 41.3323 23.5335 41.4603 24.1735C41.6043 24.7975 41.8443 25.3335 42.1803 25.7815C42.5163 26.2135 42.9723 26.5495 43.5483 26.7895C44.1403 27.0295 44.8923 27.1495 45.8043 27.1495C46.5243 27.1495 47.2283 26.9895 47.9163 26.6695C48.6043 26.3495 49.1643 25.8295 49.5963 25.1095H49.6683V26.8375H52.9083ZM55.4949 14.4295V26.8375H58.9029V21.2455C58.9029 20.6855 58.9589 20.1655 59.0709 19.6855C59.1829 19.2055 59.3669 18.7895 59.6229 18.4375C59.8949 18.0695 60.2469 17.7815 60.6789 17.5735C61.1109 17.3655 61.6389 17.2615 62.2629 17.2615C62.4709 17.2615 62.6869 17.2775 62.9109 17.3095C63.1349 17.3255 63.3269 17.3495 63.4869 17.3815V14.2135C63.2149 14.1335 62.9669 14.0935 62.7429 14.0935C62.3109 14.0935 61.8949 14.1575 61.4949 14.2855C61.0949 14.4135 60.7189 14.5975 60.3669 14.8375C60.0149 15.0615 59.7029 15.3415 59.4309 15.6775C59.1589 15.9975 58.9429 16.3495 58.7829 16.7335H58.7349V14.4295H55.4949ZM67.463 22.8055H64.223C64.255 23.6375 64.439 24.3335 64.775 24.8935C65.127 25.4375 65.567 25.8775 66.095 26.2135C66.639 26.5495 67.255 26.7895 67.943 26.9335C68.631 27.0775 69.335 27.1495 70.055 27.1495C70.759 27.1495 71.447 27.0775 72.119 26.9335C72.807 26.8055 73.415 26.5735 73.943 26.2375C74.471 25.9015 74.895 25.4615 75.215 24.9175C75.551 24.3575 75.719 23.6695 75.719 22.8535C75.719 22.2775 75.607 21.7975 75.383 21.4135C75.159 21.0135 74.863 20.6855 74.495 20.4295C74.127 20.1575 73.703 19.9415 73.223 19.7815C72.759 19.6215 72.279 19.4855 71.783 19.3735C71.303 19.2615 70.831 19.1575 70.367 19.0615C69.903 18.9655 69.487 18.8615 69.119 18.7495C68.767 18.6215 68.479 18.4615 68.255 18.2695C68.031 18.0775 67.919 17.8295 67.919 17.5255C67.919 17.2695 67.983 17.0695 68.111 16.9255C68.239 16.7655 68.391 16.6455 68.567 16.5655C68.759 16.4855 68.967 16.4375 69.191 16.4215C69.415 16.3895 69.623 16.3735 69.815 16.3735C70.423 16.3735 70.951 16.4935 71.399 16.7335C71.847 16.9575 72.095 17.3975 72.143 18.0535H75.383C75.319 17.2855 75.119 16.6535 74.783 16.1575C74.463 15.6455 74.055 15.2375 73.559 14.9335C73.063 14.6295 72.495 14.4135 71.855 14.2855C71.231 14.1575 70.583 14.0935 69.911 14.0935C69.239 14.0935 68.583 14.1575 67.943 14.2855C67.303 14.3975 66.727 14.6055 66.215 14.9095C65.703 15.1975 65.287 15.5975 64.967 16.1095C64.663 16.6215 64.511 17.2775 64.511 18.0775C64.511 18.6215 64.623 19.0855 64.847 19.4695C65.071 19.8375 65.367 20.1495 65.735 20.4055C66.103 20.6455 66.519 20.8455 66.983 21.0055C67.463 21.1495 67.951 21.2775 68.447 21.3895C69.663 21.6455 70.607 21.9015 71.279 22.1575C71.967 22.4135 72.311 22.7975 72.311 23.3095C72.311 23.6135 72.239 23.8695 72.095 24.0775C71.951 24.2695 71.767 24.4295 71.543 24.5575C71.335 24.6695 71.095 24.7575 70.823 24.8215C70.567 24.8695 70.319 24.8935 70.079 24.8935C69.743 24.8935 69.415 24.8535 69.095 24.7735C68.791 24.6935 68.519 24.5735 68.279 24.4135C68.039 24.2375 67.839 24.0215 67.679 23.7655C67.535 23.4935 67.463 23.1735 67.463 22.8055ZM86.0656 19.3015H80.5216C80.5376 19.0615 80.5856 18.7895 80.6656 18.4855C80.7616 18.1815 80.9136 17.8935 81.1216 17.6215C81.3456 17.3495 81.6336 17.1255 81.9856 16.9495C82.3536 16.7575 82.8096 16.6615 83.3536 16.6615C84.1856 16.6615 84.8016 16.8855 85.2016 17.3335C85.6176 17.7815 85.9056 18.4375 86.0656 19.3015ZM80.5216 21.4615H89.4736C89.5376 20.5015 89.4576 19.5815 89.2336 18.7015C89.0096 17.8215 88.6416 17.0375 88.1296 16.3495C87.6336 15.6615 86.9936 15.1175 86.2096 14.7175C85.4256 14.3015 84.5056 14.0935 83.4496 14.0935C82.5056 14.0935 81.6416 14.2615 80.8576 14.5975C80.0896 14.9335 79.4256 15.3975 78.8656 15.9895C78.3056 16.5655 77.8736 17.2535 77.5696 18.0535C77.2656 18.8535 77.1136 19.7175 77.1136 20.6455C77.1136 21.6055 77.2576 22.4855 77.5456 23.2855C77.8496 24.0855 78.2736 24.7735 78.8176 25.3495C79.3616 25.9255 80.0256 26.3735 80.8096 26.6935C81.5936 26.9975 82.4736 27.1495 83.4496 27.1495C84.8576 27.1495 86.0576 26.8295 87.0496 26.1895C88.0416 25.5495 88.7776 24.4855 89.2576 22.9975H86.2576C86.1456 23.3815 85.8416 23.7495 85.3456 24.1015C84.8496 24.4375 84.2576 24.6055 83.5696 24.6055C82.6096 24.6055 81.8736 24.3575 81.3616 23.8615C80.8496 23.3655 80.5696 22.5655 80.5216 21.4615ZM91.8549 9.70146V26.8375H95.6229V9.70146H91.8549ZM98.573 14.4295V26.8375H101.981V20.3335C101.981 19.0695 102.189 18.1655 102.605 17.6215C103.021 17.0615 103.693 16.7815 104.621 16.7815C105.437 16.7815 106.005 17.0375 106.325 17.5495C106.645 18.0455 106.805 18.8055 106.805 19.8295V26.8375H110.213V19.2055C110.213 18.4375 110.141 17.7415 109.997 17.1175C109.869 16.4775 109.637 15.9415 109.301 15.5095C108.965 15.0615 108.501 14.7175 107.909 14.4775C107.333 14.2215 106.589 14.0935 105.677 14.0935C104.957 14.0935 104.253 14.2615 103.565 14.5975C102.877 14.9175 102.317 15.4375 101.885 16.1575H101.813V14.4295H98.573ZM115.44 22.8055H112.2C112.232 23.6375 112.416 24.3335 112.752 24.8935C113.104 25.4375 113.544 25.8775 114.072 26.2135C114.616 26.5495 115.232 26.7895 115.92 26.9335C116.608 27.0775 117.312 27.1495 118.032 27.1495C118.736 27.1495 119.424 27.0775 120.096 26.9335C120.784 26.8055 121.392 26.5735 121.92 26.2375C122.448 25.9015 122.872 25.4615 123.192 24.9175C123.528 24.3575 123.696 23.6695 123.696 22.8535C123.696 22.2775 123.584 21.7975 123.36 21.4135C123.136 21.0135 122.84 20.6855 122.472 20.4295C122.104 20.1575 121.68 19.9415 121.2 19.7815C120.736 19.6215 120.256 19.4855 119.76 19.3735C119.28 19.2615 118.808 19.1575 118.344 19.0615C117.88 18.9655 117.464 18.8615 117.096 18.7495C116.744 18.6215 116.456 18.4615 116.232 18.2695C116.008 18.0775 115.896 17.8295 115.896 17.5255C115.896 17.2695 115.96 17.0695 116.088 16.9255C116.216 16.7655 116.368 16.6455 116.544 16.5655C116.736 16.4855 116.944 16.4375 117.168 16.4215C117.392 16.3895 117.6 16.3735 117.792 16.3735C118.4 16.3735 118.928 16.4935 119.376 16.7335C119.824 16.9575 120.072 17.3975 120.12 18.0535H123.36C123.296 17.2855 123.096 16.6535 122.76 16.1575C122.44 15.6455 122.032 15.2375 121.536 14.9335C121.04 14.6295 120.472 14.4135 119.832 14.2855C119.208 14.1575 118.56 14.0935 117.888 14.0935C117.216 14.0935 116.56 14.1575 115.92 14.2855C115.28 14.3975 114.704 14.6055 114.192 14.9095C113.68 15.1975 113.264 15.5975 112.944 16.1095C112.64 16.6215 112.488 17.2775 112.488 18.0775C112.488 18.6215 112.6 19.0855 112.824 19.4695C113.048 19.8375 113.344 20.1495 113.712 20.4055C114.08 20.6455 114.496 20.8455 114.96 21.0055C115.44 21.1495 115.928 21.2775 116.424 21.3895C117.64 21.6455 118.584 21.9015 119.256 22.1575C119.944 22.4135 120.288 22.7975 120.288 23.3095C120.288 23.6135 120.216 23.8695 120.072 24.0775C119.928 24.2695 119.744 24.4295 119.52 24.5575C119.312 24.6695 119.072 24.7575 118.8 24.8215C118.544 24.8695 118.296 24.8935 118.056 24.8935C117.72 24.8935 117.392 24.8535 117.072 24.7735C116.768 24.6935 116.496 24.5735 116.256 24.4135C116.016 24.2375 115.816 24.0215 115.656 23.7655C115.512 23.4935 115.44 23.1735 115.44 22.8055ZM129.194 12.5095V9.70146H125.786V12.5095H129.194ZM125.786 14.4295V26.8375H129.194V14.4295H125.786ZM140.686 20.5975C140.686 21.1095 140.638 21.6055 140.542 22.0855C140.446 22.5655 140.286 22.9975 140.062 23.3815C139.838 23.7495 139.534 24.0455 139.15 24.2695C138.782 24.4935 138.318 24.6055 137.758 24.6055C137.23 24.6055 136.774 24.4935 136.39 24.2695C136.022 24.0295 135.71 23.7255 135.454 23.3575C135.214 22.9735 135.038 22.5415 134.926 22.0615C134.814 21.5815 134.758 21.1015 134.758 20.6215C134.758 20.1095 134.806 19.6215 134.902 19.1575C135.014 18.6775 135.182 18.2535 135.406 17.8855C135.646 17.5175 135.958 17.2215 136.342 16.9975C136.726 16.7735 137.198 16.6615 137.758 16.6615C138.318 16.6615 138.782 16.7735 139.15 16.9975C139.518 17.2215 139.814 17.5175 140.038 17.8855C140.278 18.2375 140.446 18.6535 140.542 19.1335C140.638 19.5975 140.686 20.0855 140.686 20.5975ZM140.734 25.2535V26.8375H143.974V9.70146H140.566V15.9415H140.518C140.134 15.3335 139.606 14.8775 138.934 14.5735C138.278 14.2535 137.582 14.0935 136.846 14.0935C135.934 14.0935 135.134 14.2775 134.446 14.6455C133.758 14.9975 133.182 15.4695 132.718 16.0615C132.27 16.6535 131.926 17.3415 131.686 18.1255C131.462 18.8935 131.35 19.6935 131.35 20.5255C131.35 21.3895 131.462 22.2215 131.686 23.0215C131.926 23.8215 132.27 24.5335 132.718 25.1575C133.182 25.7655 133.766 26.2535 134.47 26.6215C135.174 26.9735 135.99 27.1495 136.918 27.1495C137.734 27.1495 138.462 27.0055 139.102 26.7175C139.758 26.4135 140.286 25.9255 140.686 25.2535H140.734ZM154.902 19.3015H149.358C149.374 19.0615 149.422 18.7895 149.502 18.4855C149.598 18.1815 149.75 17.8935 149.958 17.6215C150.182 17.3495 150.47 17.1255 150.822 16.9495C151.19 16.7575 151.646 16.6615 152.19 16.6615C153.022 16.6615 153.638 16.8855 154.038 17.3335C154.454 17.7815 154.742 18.4375 154.902 19.3015ZM149.358 21.4615H158.31C158.374 20.5015 158.294 19.5815 158.07 18.7015C157.846 17.8215 157.478 17.0375 156.966 16.3495C156.47 15.6615 155.83 15.1175 155.046 14.7175C154.262 14.3015 153.342 14.0935 152.286 14.0935C151.342 14.0935 150.478 14.2615 149.694 14.5975C148.926 14.9335 148.262 15.3975 147.702 15.9895C147.142 16.5655 146.71 17.2535 146.406 18.0535C146.102 18.8535 145.95 19.7175 145.95 20.6455C145.95 21.6055 146.094 22.4855 146.382 23.2855C146.686 24.0855 147.11 24.7735 147.654 25.3495C148.198 25.9255 148.862 26.3735 149.646 26.6935C150.43 26.9975 151.31 27.1495 152.286 27.1495C153.694 27.1495 154.894 26.8295 155.886 26.1895C156.878 25.5495 157.614 24.4855 158.094 22.9975H155.094C154.982 23.3815 154.678 23.7495 154.182 24.1015C153.686 24.4375 153.094 24.6055 152.406 24.6055C151.446 24.6055 150.71 24.3575 150.198 23.8615C149.686 23.3655 149.406 22.5655 149.358 21.4615ZM160.331 14.4295V26.8375H163.739V21.2455C163.739 20.6855 163.795 20.1655 163.907 19.6855C164.019 19.2055 164.203 18.7895 164.459 18.4375C164.731 18.0695 165.083 17.7815 165.515 17.5735C165.947 17.3655 166.475 17.2615 167.099 17.2615C167.307 17.2615 167.523 17.2775 167.747 17.3095C167.971 17.3255 168.163 17.3495 168.323 17.3815V14.2135C168.051 14.1335 167.803 14.0935 167.579 14.0935C167.147 14.0935 166.731 14.1575 166.331 14.2855C165.931 14.4135 165.555 14.5975 165.203 14.8375C164.851 15.0615 164.539 15.3415 164.267 15.6775C163.995 15.9975 163.779 16.3495 163.619 16.7335H163.571V14.4295H160.331Z" fill="#4D52BF"/>
<path fill-rule="evenodd" clip-rule="evenodd" d="M5.84388 4.31956L15 0L12.2318 3.91592L14.5609 6.69154C14.6701 6.82172 14.7407 6.97839 14.7751 7.15662C13.721 7.26251 12.7462 7.51218 11.8508 7.90563C10.6442 8.44396 9.62319 9.18649 8.78785 10.1332C7.9525 11.0799 7.31207 12.1937 6.86655 13.4746C6.86462 13.4801 6.86268 13.4856 6.86076 13.4911C6.78763 13.4415 6.72251 13.3832 6.66613 13.316L4.33711 10.5404L0 12.5865L5.84388 4.31956Z" fill="#4D52BF"/>
</svg>
